<mxfile host="app.diagrams.net" modified="2023-10-29T21:10:10.554Z" agent="Mozilla/5.0 (Windows NT 10.0; Win64; x64) AppleWebKit/537.36 (KHTML, like Gecko) Chrome/118.0.0.0 Safari/537.36" etag="fvJIDyDD8L7FMVkiczKe" version="22.0.8" type="device">
  <diagram name="PÃ¡gina-1" id="WyTK1F0okosWZXt38Lui">
    <mxGraphModel dx="3500" dy="1740" grid="1" gridSize="10" guides="1" tooltips="1" connect="1" arrows="1" fold="1" page="1" pageScale="1" pageWidth="2339" pageHeight="3300" math="0" shadow="0">
      <root>
        <mxCell id="0" />
        <mxCell id="1" parent="0" />
        <mxCell id="iWZckLX41BdWrGpEnXUP-7" style="edgeStyle=orthogonalEdgeStyle;rounded=0;orthogonalLoop=1;jettySize=auto;html=1;" parent="1" source="2KT6dH3YFQWWUS_MdQeZ-459" edge="1">
          <mxGeometry relative="1" as="geometry">
            <mxPoint x="958" y="130" as="targetPoint" />
          </mxGeometry>
        </mxCell>
        <mxCell id="2KT6dH3YFQWWUS_MdQeZ-459" value="BaseIdentificador&lt;br&gt;&amp;lt;&amp;lt;abstract&amp;gt;&amp;gt;" style="swimlane;fontStyle=1;align=center;verticalAlign=top;childLayout=stackLayout;horizontal=1;startSize=40;horizontalStack=0;resizeParent=1;resizeParentMax=0;resizeLast=0;collapsible=1;marginBottom=0;whiteSpace=wrap;html=1;" parent="1" vertex="1">
          <mxGeometry x="878" y="200" width="160" height="110" as="geometry" />
        </mxCell>
        <mxCell id="2KT6dH3YFQWWUS_MdQeZ-460" value="# codigo: int&lt;br&gt;" style="text;strokeColor=none;fillColor=none;align=left;verticalAlign=top;spacingLeft=4;spacingRight=4;overflow=hidden;rotatable=0;points=[[0,0.5],[1,0.5]];portConstraint=eastwest;whiteSpace=wrap;html=1;" parent="2KT6dH3YFQWWUS_MdQeZ-459" vertex="1">
          <mxGeometry y="40" width="160" height="26" as="geometry" />
        </mxCell>
        <mxCell id="2KT6dH3YFQWWUS_MdQeZ-461" value="" style="line;strokeWidth=1;fillColor=none;align=left;verticalAlign=middle;spacingTop=-1;spacingLeft=3;spacingRight=3;rotatable=0;labelPosition=right;points=[];portConstraint=eastwest;strokeColor=inherit;" parent="2KT6dH3YFQWWUS_MdQeZ-459" vertex="1">
          <mxGeometry y="66" width="160" height="8" as="geometry" />
        </mxCell>
        <mxCell id="2KT6dH3YFQWWUS_MdQeZ-462" value="+BaseIdentificador ()" style="text;strokeColor=none;fillColor=none;align=left;verticalAlign=top;spacingLeft=4;spacingRight=4;overflow=hidden;rotatable=0;points=[[0,0.5],[1,0.5]];portConstraint=eastwest;whiteSpace=wrap;html=1;" parent="2KT6dH3YFQWWUS_MdQeZ-459" vertex="1">
          <mxGeometry y="74" width="160" height="36" as="geometry" />
        </mxCell>
        <mxCell id="2KT6dH3YFQWWUS_MdQeZ-463" value="BasePessoa&lt;br&gt;&amp;lt;&amp;lt;abstract&amp;gt;&amp;gt;" style="swimlane;fontStyle=1;align=center;verticalAlign=top;childLayout=stackLayout;horizontal=1;startSize=40;horizontalStack=0;resizeParent=1;resizeParentMax=0;resizeLast=0;collapsible=1;marginBottom=0;whiteSpace=wrap;html=1;" parent="1" vertex="1">
          <mxGeometry x="878" y="515" width="160" height="134" as="geometry" />
        </mxCell>
        <mxCell id="2KT6dH3YFQWWUS_MdQeZ-464" value="#data de nascimento: data&lt;br&gt;#nomeUsuario: String&lt;br&gt;#senha: String" style="text;strokeColor=none;fillColor=none;align=left;verticalAlign=top;spacingLeft=4;spacingRight=4;overflow=hidden;rotatable=0;points=[[0,0.5],[1,0.5]];portConstraint=eastwest;whiteSpace=wrap;html=1;" parent="2KT6dH3YFQWWUS_MdQeZ-463" vertex="1">
          <mxGeometry y="40" width="160" height="60" as="geometry" />
        </mxCell>
        <mxCell id="2KT6dH3YFQWWUS_MdQeZ-465" value="" style="line;strokeWidth=1;fillColor=none;align=left;verticalAlign=middle;spacingTop=-1;spacingLeft=3;spacingRight=3;rotatable=0;labelPosition=right;points=[];portConstraint=eastwest;strokeColor=inherit;" parent="2KT6dH3YFQWWUS_MdQeZ-463" vertex="1">
          <mxGeometry y="100" width="160" height="8" as="geometry" />
        </mxCell>
        <mxCell id="2KT6dH3YFQWWUS_MdQeZ-466" value="+BasePessoa()" style="text;strokeColor=none;fillColor=none;align=left;verticalAlign=top;spacingLeft=4;spacingRight=4;overflow=hidden;rotatable=0;points=[[0,0.5],[1,0.5]];portConstraint=eastwest;whiteSpace=wrap;html=1;" parent="2KT6dH3YFQWWUS_MdQeZ-463" vertex="1">
          <mxGeometry y="108" width="160" height="26" as="geometry" />
        </mxCell>
        <mxCell id="2KT6dH3YFQWWUS_MdQeZ-468" value="Aluno" style="swimlane;fontStyle=1;align=center;verticalAlign=top;childLayout=stackLayout;horizontal=1;startSize=26;horizontalStack=0;resizeParent=1;resizeParentMax=0;resizeLast=0;collapsible=1;marginBottom=0;whiteSpace=wrap;html=1;" parent="1" vertex="1">
          <mxGeometry x="730" y="760" width="160" height="100" as="geometry" />
        </mxCell>
        <mxCell id="2KT6dH3YFQWWUS_MdQeZ-469" value="-periodo: int" style="text;strokeColor=none;fillColor=none;align=left;verticalAlign=top;spacingLeft=4;spacingRight=4;overflow=hidden;rotatable=0;points=[[0,0.5],[1,0.5]];portConstraint=eastwest;whiteSpace=wrap;html=1;" parent="2KT6dH3YFQWWUS_MdQeZ-468" vertex="1">
          <mxGeometry y="26" width="160" height="26" as="geometry" />
        </mxCell>
        <mxCell id="2KT6dH3YFQWWUS_MdQeZ-470" value="" style="line;strokeWidth=1;fillColor=none;align=left;verticalAlign=middle;spacingTop=-1;spacingLeft=3;spacingRight=3;rotatable=0;labelPosition=right;points=[];portConstraint=eastwest;strokeColor=inherit;" parent="2KT6dH3YFQWWUS_MdQeZ-468" vertex="1">
          <mxGeometry y="52" width="160" height="8" as="geometry" />
        </mxCell>
        <mxCell id="2KT6dH3YFQWWUS_MdQeZ-471" value="+Aluno(int, String, data, ..., int)" style="text;strokeColor=none;fillColor=none;align=left;verticalAlign=top;spacingLeft=4;spacingRight=4;overflow=hidden;rotatable=0;points=[[0,0.5],[1,0.5]];portConstraint=eastwest;whiteSpace=wrap;html=1;" parent="2KT6dH3YFQWWUS_MdQeZ-468" vertex="1">
          <mxGeometry y="60" width="160" height="40" as="geometry" />
        </mxCell>
        <mxCell id="iWZckLX41BdWrGpEnXUP-12" style="edgeStyle=orthogonalEdgeStyle;rounded=0;orthogonalLoop=1;jettySize=auto;html=1;exitX=0.5;exitY=0;exitDx=0;exitDy=0;" parent="1" edge="1">
          <mxGeometry relative="1" as="geometry">
            <mxPoint x="959" y="650" as="targetPoint" />
            <mxPoint x="1115" y="770" as="sourcePoint" />
            <Array as="points">
              <mxPoint x="1119" y="770" />
              <mxPoint x="1119" y="720" />
              <mxPoint x="959" y="720" />
            </Array>
          </mxGeometry>
        </mxCell>
        <mxCell id="2KT6dH3YFQWWUS_MdQeZ-473" value="Professor" style="swimlane;fontStyle=1;align=center;verticalAlign=top;childLayout=stackLayout;horizontal=1;startSize=26;horizontalStack=0;resizeParent=1;resizeParentMax=0;resizeLast=0;collapsible=1;marginBottom=0;whiteSpace=wrap;html=1;" parent="1" vertex="1">
          <mxGeometry x="1038" y="760" width="160" height="100" as="geometry" />
        </mxCell>
        <mxCell id="2KT6dH3YFQWWUS_MdQeZ-474" value="-cargo: String" style="text;strokeColor=none;fillColor=none;align=left;verticalAlign=top;spacingLeft=4;spacingRight=4;overflow=hidden;rotatable=0;points=[[0,0.5],[1,0.5]];portConstraint=eastwest;whiteSpace=wrap;html=1;" parent="2KT6dH3YFQWWUS_MdQeZ-473" vertex="1">
          <mxGeometry y="26" width="160" height="26" as="geometry" />
        </mxCell>
        <mxCell id="2KT6dH3YFQWWUS_MdQeZ-475" value="" style="line;strokeWidth=1;fillColor=none;align=left;verticalAlign=middle;spacingTop=-1;spacingLeft=3;spacingRight=3;rotatable=0;labelPosition=right;points=[];portConstraint=eastwest;strokeColor=inherit;" parent="2KT6dH3YFQWWUS_MdQeZ-473" vertex="1">
          <mxGeometry y="52" width="160" height="8" as="geometry" />
        </mxCell>
        <mxCell id="2KT6dH3YFQWWUS_MdQeZ-476" value="+Professor(int, String, data, ..., String)" style="text;strokeColor=none;fillColor=none;align=left;verticalAlign=top;spacingLeft=4;spacingRight=4;overflow=hidden;rotatable=0;points=[[0,0.5],[1,0.5]];portConstraint=eastwest;whiteSpace=wrap;html=1;" parent="2KT6dH3YFQWWUS_MdQeZ-473" vertex="1">
          <mxGeometry y="60" width="160" height="40" as="geometry" />
        </mxCell>
        <mxCell id="2KT6dH3YFQWWUS_MdQeZ-478" value="Disciplina" style="swimlane;fontStyle=1;align=center;verticalAlign=top;childLayout=stackLayout;horizontal=1;startSize=26;horizontalStack=0;resizeParent=1;resizeParentMax=0;resizeLast=0;collapsible=1;marginBottom=0;whiteSpace=wrap;html=1;" parent="1" vertex="1">
          <mxGeometry x="480" y="800" width="160" height="110" as="geometry" />
        </mxCell>
        <mxCell id="2KT6dH3YFQWWUS_MdQeZ-479" value="-ementa: String" style="text;strokeColor=none;fillColor=none;align=left;verticalAlign=top;spacingLeft=4;spacingRight=4;overflow=hidden;rotatable=0;points=[[0,0.5],[1,0.5]];portConstraint=eastwest;whiteSpace=wrap;html=1;" parent="2KT6dH3YFQWWUS_MdQeZ-478" vertex="1">
          <mxGeometry y="26" width="160" height="26" as="geometry" />
        </mxCell>
        <mxCell id="2KT6dH3YFQWWUS_MdQeZ-480" value="" style="line;strokeWidth=1;fillColor=none;align=left;verticalAlign=middle;spacingTop=-1;spacingLeft=3;spacingRight=3;rotatable=0;labelPosition=right;points=[];portConstraint=eastwest;strokeColor=inherit;" parent="2KT6dH3YFQWWUS_MdQeZ-478" vertex="1">
          <mxGeometry y="52" width="160" height="8" as="geometry" />
        </mxCell>
        <mxCell id="2KT6dH3YFQWWUS_MdQeZ-481" value="+Disciplina(int, String, String)" style="text;strokeColor=none;fillColor=none;align=left;verticalAlign=top;spacingLeft=4;spacingRight=4;overflow=hidden;rotatable=0;points=[[0,0.5],[1,0.5]];portConstraint=eastwest;whiteSpace=wrap;html=1;" parent="2KT6dH3YFQWWUS_MdQeZ-478" vertex="1">
          <mxGeometry y="60" width="160" height="50" as="geometry" />
        </mxCell>
        <mxCell id="2KT6dH3YFQWWUS_MdQeZ-486" value="Turma" style="swimlane;fontStyle=1;align=center;verticalAlign=top;childLayout=stackLayout;horizontal=1;startSize=26;horizontalStack=0;resizeParent=1;resizeParentMax=0;resizeLast=0;collapsible=1;marginBottom=0;whiteSpace=wrap;html=1;" parent="1" vertex="1">
          <mxGeometry x="1520" y="960" width="160" height="114" as="geometry" />
        </mxCell>
        <mxCell id="2KT6dH3YFQWWUS_MdQeZ-487" value="-disciplina(Displina)&lt;br&gt;-professor(Professor)&lt;br&gt;-capacidade: int" style="text;strokeColor=none;fillColor=none;align=left;verticalAlign=top;spacingLeft=4;spacingRight=4;overflow=hidden;rotatable=0;points=[[0,0.5],[1,0.5]];portConstraint=eastwest;whiteSpace=wrap;html=1;" parent="2KT6dH3YFQWWUS_MdQeZ-486" vertex="1">
          <mxGeometry y="26" width="160" height="54" as="geometry" />
        </mxCell>
        <mxCell id="2KT6dH3YFQWWUS_MdQeZ-488" value="" style="line;strokeWidth=1;fillColor=none;align=left;verticalAlign=middle;spacingTop=-1;spacingLeft=3;spacingRight=3;rotatable=0;labelPosition=right;points=[];portConstraint=eastwest;strokeColor=inherit;" parent="2KT6dH3YFQWWUS_MdQeZ-486" vertex="1">
          <mxGeometry y="80" width="160" height="8" as="geometry" />
        </mxCell>
        <mxCell id="2KT6dH3YFQWWUS_MdQeZ-489" value="+Turma(int, )" style="text;strokeColor=none;fillColor=none;align=left;verticalAlign=top;spacingLeft=4;spacingRight=4;overflow=hidden;rotatable=0;points=[[0,0.5],[1,0.5]];portConstraint=eastwest;whiteSpace=wrap;html=1;" parent="2KT6dH3YFQWWUS_MdQeZ-486" vertex="1">
          <mxGeometry y="88" width="160" height="26" as="geometry" />
        </mxCell>
        <mxCell id="2KT6dH3YFQWWUS_MdQeZ-490" value="Trabalho" style="swimlane;fontStyle=1;align=center;verticalAlign=top;childLayout=stackLayout;horizontal=1;startSize=26;horizontalStack=0;resizeParent=1;resizeParentMax=0;resizeLast=0;collapsible=1;marginBottom=0;whiteSpace=wrap;html=1;" parent="1" vertex="1">
          <mxGeometry x="890" y="960" width="160" height="104" as="geometry" />
        </mxCell>
        <mxCell id="iWZckLX41BdWrGpEnXUP-22" value="" style="endArrow=none;html=1;rounded=0;entryX=0.502;entryY=1.013;entryDx=0;entryDy=0;entryPerimeter=0;" parent="2KT6dH3YFQWWUS_MdQeZ-490" target="2KT6dH3YFQWWUS_MdQeZ-493" edge="1">
          <mxGeometry width="50" height="50" relative="1" as="geometry">
            <mxPoint x="80" y="200" as="sourcePoint" />
            <mxPoint x="79.58000000000004" y="-32" as="targetPoint" />
          </mxGeometry>
        </mxCell>
        <mxCell id="2KT6dH3YFQWWUS_MdQeZ-491" value="-descriÃ§Ã£o: String&lt;br&gt;-disciplina(Displina)" style="text;strokeColor=none;fillColor=none;align=left;verticalAlign=top;spacingLeft=4;spacingRight=4;overflow=hidden;rotatable=0;points=[[0,0.5],[1,0.5]];portConstraint=eastwest;whiteSpace=wrap;html=1;" parent="2KT6dH3YFQWWUS_MdQeZ-490" vertex="1">
          <mxGeometry y="26" width="160" height="44" as="geometry" />
        </mxCell>
        <mxCell id="2KT6dH3YFQWWUS_MdQeZ-492" value="" style="line;strokeWidth=1;fillColor=none;align=left;verticalAlign=middle;spacingTop=-1;spacingLeft=3;spacingRight=3;rotatable=0;labelPosition=right;points=[];portConstraint=eastwest;strokeColor=inherit;" parent="2KT6dH3YFQWWUS_MdQeZ-490" vertex="1">
          <mxGeometry y="70" width="160" height="8" as="geometry" />
        </mxCell>
        <mxCell id="2KT6dH3YFQWWUS_MdQeZ-493" value="+Trabalho(int,)" style="text;strokeColor=none;fillColor=none;align=left;verticalAlign=top;spacingLeft=4;spacingRight=4;overflow=hidden;rotatable=0;points=[[0,0.5],[1,0.5]];portConstraint=eastwest;whiteSpace=wrap;html=1;" parent="2KT6dH3YFQWWUS_MdQeZ-490" vertex="1">
          <mxGeometry y="78" width="160" height="26" as="geometry" />
        </mxCell>
        <mxCell id="2KT6dH3YFQWWUS_MdQeZ-512" value="NotaTrabalho" style="swimlane;fontStyle=1;align=center;verticalAlign=top;childLayout=stackLayout;horizontal=1;startSize=26;horizontalStack=0;resizeParent=1;resizeParentMax=0;resizeLast=0;collapsible=1;marginBottom=0;whiteSpace=wrap;html=1;" parent="1" vertex="1">
          <mxGeometry x="1198" y="960" width="160" height="150" as="geometry" />
        </mxCell>
        <mxCell id="2KT6dH3YFQWWUS_MdQeZ-513" value="-nota: double&lt;br&gt;-trabalho(Trabalho)&lt;br&gt;-aluno(Aluno)" style="text;strokeColor=none;fillColor=none;align=left;verticalAlign=top;spacingLeft=4;spacingRight=4;overflow=hidden;rotatable=0;points=[[0,0.5],[1,0.5]];portConstraint=eastwest;whiteSpace=wrap;html=1;" parent="2KT6dH3YFQWWUS_MdQeZ-512" vertex="1">
          <mxGeometry y="26" width="160" height="64" as="geometry" />
        </mxCell>
        <mxCell id="2KT6dH3YFQWWUS_MdQeZ-514" value="" style="line;strokeWidth=1;fillColor=none;align=left;verticalAlign=middle;spacingTop=-1;spacingLeft=3;spacingRight=3;rotatable=0;labelPosition=right;points=[];portConstraint=eastwest;strokeColor=inherit;" parent="2KT6dH3YFQWWUS_MdQeZ-512" vertex="1">
          <mxGeometry y="90" width="160" height="8" as="geometry" />
        </mxCell>
        <mxCell id="2KT6dH3YFQWWUS_MdQeZ-515" value="+NotaTrabalho(int, double,Trabalho, Aluno)" style="text;strokeColor=none;fillColor=none;align=left;verticalAlign=top;spacingLeft=4;spacingRight=4;overflow=hidden;rotatable=0;points=[[0,0.5],[1,0.5]];portConstraint=eastwest;whiteSpace=wrap;html=1;" parent="2KT6dH3YFQWWUS_MdQeZ-512" vertex="1">
          <mxGeometry y="98" width="160" height="52" as="geometry" />
        </mxCell>
        <mxCell id="iWZckLX41BdWrGpEnXUP-2" value="&lt;font style=&quot;font-size: 14px;&quot;&gt;Iimpressao&lt;br&gt;&amp;lt;&amp;lt;Interface&amp;gt;&amp;gt;&lt;/font&gt;" style="swimlane;fontStyle=1;align=center;verticalAlign=top;childLayout=stackLayout;horizontal=1;startSize=50;horizontalStack=0;resizeParent=1;resizeParentMax=0;resizeLast=0;collapsible=1;marginBottom=0;whiteSpace=wrap;html=1;" parent="1" vertex="1">
          <mxGeometry x="878" y="40" width="160" height="84" as="geometry" />
        </mxCell>
        <mxCell id="iWZckLX41BdWrGpEnXUP-4" value="" style="line;strokeWidth=1;fillColor=none;align=left;verticalAlign=middle;spacingTop=-1;spacingLeft=3;spacingRight=3;rotatable=0;labelPosition=right;points=[];portConstraint=eastwest;strokeColor=inherit;" parent="iWZckLX41BdWrGpEnXUP-2" vertex="1">
          <mxGeometry y="50" width="160" height="8" as="geometry" />
        </mxCell>
        <mxCell id="iWZckLX41BdWrGpEnXUP-5" value="+Imprimir()" style="text;strokeColor=none;fillColor=none;align=left;verticalAlign=top;spacingLeft=4;spacingRight=4;overflow=hidden;rotatable=0;points=[[0,0.5],[1,0.5]];portConstraint=eastwest;whiteSpace=wrap;html=1;" parent="iWZckLX41BdWrGpEnXUP-2" vertex="1">
          <mxGeometry y="58" width="160" height="26" as="geometry" />
        </mxCell>
        <mxCell id="iWZckLX41BdWrGpEnXUP-8" style="edgeStyle=orthogonalEdgeStyle;rounded=0;orthogonalLoop=1;jettySize=auto;html=1;" parent="1" source="2KT6dH3YFQWWUS_MdQeZ-482" edge="1">
          <mxGeometry relative="1" as="geometry">
            <mxPoint x="958" y="310" as="targetPoint" />
          </mxGeometry>
        </mxCell>
        <mxCell id="2KT6dH3YFQWWUS_MdQeZ-482" value="BaseDadosComuns&lt;br&gt;&amp;lt;&amp;lt;abstract&amp;gt;&amp;gt;" style="swimlane;fontStyle=1;align=center;verticalAlign=top;childLayout=stackLayout;horizontal=1;startSize=40;horizontalStack=0;resizeParent=1;resizeParentMax=0;resizeLast=0;collapsible=1;marginBottom=0;whiteSpace=wrap;html=1;" parent="1" vertex="1">
          <mxGeometry x="878" y="360" width="160" height="100" as="geometry" />
        </mxCell>
        <mxCell id="2KT6dH3YFQWWUS_MdQeZ-483" value="#nome: String" style="text;strokeColor=none;fillColor=none;align=left;verticalAlign=top;spacingLeft=4;spacingRight=4;overflow=hidden;rotatable=0;points=[[0,0.5],[1,0.5]];portConstraint=eastwest;whiteSpace=wrap;html=1;" parent="2KT6dH3YFQWWUS_MdQeZ-482" vertex="1">
          <mxGeometry y="40" width="160" height="26" as="geometry" />
        </mxCell>
        <mxCell id="2KT6dH3YFQWWUS_MdQeZ-484" value="" style="line;strokeWidth=1;fillColor=none;align=left;verticalAlign=middle;spacingTop=-1;spacingLeft=3;spacingRight=3;rotatable=0;labelPosition=right;points=[];portConstraint=eastwest;strokeColor=inherit;" parent="2KT6dH3YFQWWUS_MdQeZ-482" vertex="1">
          <mxGeometry y="66" width="160" height="8" as="geometry" />
        </mxCell>
        <mxCell id="2KT6dH3YFQWWUS_MdQeZ-485" value="+BaseDadosComuns()" style="text;strokeColor=none;fillColor=none;align=left;verticalAlign=top;spacingLeft=4;spacingRight=4;overflow=hidden;rotatable=0;points=[[0,0.5],[1,0.5]];portConstraint=eastwest;whiteSpace=wrap;html=1;" parent="2KT6dH3YFQWWUS_MdQeZ-482" vertex="1">
          <mxGeometry y="74" width="160" height="26" as="geometry" />
        </mxCell>
        <mxCell id="iWZckLX41BdWrGpEnXUP-9" style="edgeStyle=orthogonalEdgeStyle;rounded=0;orthogonalLoop=1;jettySize=auto;html=1;exitX=0.5;exitY=0;exitDx=0;exitDy=0;entryX=0.5;entryY=1;entryDx=0;entryDy=0;entryPerimeter=0;" parent="1" source="2KT6dH3YFQWWUS_MdQeZ-463" target="2KT6dH3YFQWWUS_MdQeZ-485" edge="1">
          <mxGeometry relative="1" as="geometry" />
        </mxCell>
        <mxCell id="iWZckLX41BdWrGpEnXUP-13" style="edgeStyle=orthogonalEdgeStyle;rounded=0;orthogonalLoop=1;jettySize=auto;html=1;exitX=0.5;exitY=1;exitDx=0;exitDy=0;entryX=1.013;entryY=0.444;entryDx=0;entryDy=0;entryPerimeter=0;" parent="1" source="2KT6dH3YFQWWUS_MdQeZ-486" target="2KT6dH3YFQWWUS_MdQeZ-462" edge="1">
          <mxGeometry relative="1" as="geometry">
            <mxPoint x="1622.3200000000002" y="1244.6499999999999" as="sourcePoint" />
            <mxPoint x="1040" y="290" as="targetPoint" />
            <Array as="points">
              <mxPoint x="1600" y="1160" />
              <mxPoint x="1720" y="1160" />
              <mxPoint x="1720" y="290" />
            </Array>
          </mxGeometry>
        </mxCell>
        <mxCell id="iWZckLX41BdWrGpEnXUP-14" style="edgeStyle=orthogonalEdgeStyle;rounded=0;orthogonalLoop=1;jettySize=auto;html=1;exitX=0.5;exitY=0;exitDx=0;exitDy=0;entryX=0.006;entryY=0.059;entryDx=0;entryDy=0;entryPerimeter=0;" parent="1" source="2KT6dH3YFQWWUS_MdQeZ-478" target="2KT6dH3YFQWWUS_MdQeZ-485" edge="1">
          <mxGeometry relative="1" as="geometry" />
        </mxCell>
        <mxCell id="iWZckLX41BdWrGpEnXUP-17" value="" style="endArrow=none;html=1;rounded=0;" parent="1" edge="1">
          <mxGeometry width="50" height="50" relative="1" as="geometry">
            <mxPoint x="970" y="1160" as="sourcePoint" />
            <mxPoint x="1598" y="1160" as="targetPoint" />
          </mxGeometry>
        </mxCell>
        <mxCell id="iWZckLX41BdWrGpEnXUP-19" value="" style="endArrow=none;html=1;rounded=0;" parent="1" target="2KT6dH3YFQWWUS_MdQeZ-515" edge="1">
          <mxGeometry width="50" height="50" relative="1" as="geometry">
            <mxPoint x="1278" y="1160" as="sourcePoint" />
            <mxPoint x="1280" y="1230" as="targetPoint" />
          </mxGeometry>
        </mxCell>
        <mxCell id="iWZckLX41BdWrGpEnXUP-25" value="" style="endArrow=none;html=1;rounded=0;" parent="1" edge="1">
          <mxGeometry width="50" height="50" relative="1" as="geometry">
            <mxPoint x="800" y="720" as="sourcePoint" />
            <mxPoint x="960" y="720" as="targetPoint" />
          </mxGeometry>
        </mxCell>
        <mxCell id="iWZckLX41BdWrGpEnXUP-26" value="" style="endArrow=none;html=1;rounded=0;exitX=0.441;exitY=-0.028;exitDx=0;exitDy=0;exitPerimeter=0;" parent="1" source="2KT6dH3YFQWWUS_MdQeZ-468" edge="1">
          <mxGeometry width="50" height="50" relative="1" as="geometry">
            <mxPoint x="830" y="810" as="sourcePoint" />
            <mxPoint x="800" y="720" as="targetPoint" />
          </mxGeometry>
        </mxCell>
        <mxCell id="SnTuJil45U3Le8kGtYZz-1" style="edgeStyle=orthogonalEdgeStyle;rounded=0;orthogonalLoop=1;jettySize=auto;html=1;entryX=0;entryY=0.5;entryDx=0;entryDy=0;" parent="1" source="2KT6dH3YFQWWUS_MdQeZ-527" target="2KT6dH3YFQWWUS_MdQeZ-462" edge="1">
          <mxGeometry relative="1" as="geometry">
            <Array as="points">
              <mxPoint x="560" y="1220" />
              <mxPoint x="370" y="1220" />
              <mxPoint x="370" y="292" />
            </Array>
          </mxGeometry>
        </mxCell>
        <mxCell id="2KT6dH3YFQWWUS_MdQeZ-524" value="RendimentoEscolar" style="swimlane;fontStyle=1;align=center;verticalAlign=top;childLayout=stackLayout;horizontal=1;startSize=26;horizontalStack=0;resizeParent=1;resizeParentMax=0;resizeLast=0;collapsible=1;marginBottom=0;whiteSpace=wrap;html=1;" parent="1" vertex="1">
          <mxGeometry x="480" y="960" width="160" height="154" as="geometry" />
        </mxCell>
        <mxCell id="2KT6dH3YFQWWUS_MdQeZ-525" value="- Double nota1;&lt;br&gt;-Double nota2;&lt;br&gt;-Nota Trabalho trabalhos;&lt;br&gt;- Double mediaTrabalhos;&lt;br&gt;-Double mediaGeral;" style="text;strokeColor=none;fillColor=none;align=left;verticalAlign=top;spacingLeft=4;spacingRight=4;overflow=hidden;rotatable=0;points=[[0,0.5],[1,0.5]];portConstraint=eastwest;whiteSpace=wrap;html=1;" parent="2KT6dH3YFQWWUS_MdQeZ-524" vertex="1">
          <mxGeometry y="26" width="160" height="94" as="geometry" />
        </mxCell>
        <mxCell id="2KT6dH3YFQWWUS_MdQeZ-526" value="" style="line;strokeWidth=1;fillColor=none;align=left;verticalAlign=middle;spacingTop=-1;spacingLeft=3;spacingRight=3;rotatable=0;labelPosition=right;points=[];portConstraint=eastwest;strokeColor=inherit;" parent="2KT6dH3YFQWWUS_MdQeZ-524" vertex="1">
          <mxGeometry y="120" width="160" height="8" as="geometry" />
        </mxCell>
        <mxCell id="2KT6dH3YFQWWUS_MdQeZ-527" value="+RendimentoEscolar(int...)" style="text;strokeColor=none;fillColor=none;align=left;verticalAlign=top;spacingLeft=4;spacingRight=4;overflow=hidden;rotatable=0;points=[[0,0.5],[1,0.5]];portConstraint=eastwest;whiteSpace=wrap;html=1;" parent="2KT6dH3YFQWWUS_MdQeZ-524" vertex="1">
          <mxGeometry y="128" width="160" height="26" as="geometry" />
        </mxCell>
        <mxCell id="929rITErZlj4l2X_e_oS-4" value="Aluno" style="swimlane;fontStyle=1;align=center;verticalAlign=top;childLayout=stackLayout;horizontal=1;startSize=26;horizontalStack=0;resizeParent=1;resizeParentMax=0;resizeLast=0;collapsible=1;marginBottom=0;whiteSpace=wrap;html=1;" vertex="1" parent="1">
          <mxGeometry x="920" y="1880" width="160" height="100" as="geometry" />
        </mxCell>
        <mxCell id="929rITErZlj4l2X_e_oS-5" value="-periodo: int" style="text;strokeColor=none;fillColor=none;align=left;verticalAlign=top;spacingLeft=4;spacingRight=4;overflow=hidden;rotatable=0;points=[[0,0.5],[1,0.5]];portConstraint=eastwest;whiteSpace=wrap;html=1;" vertex="1" parent="929rITErZlj4l2X_e_oS-4">
          <mxGeometry y="26" width="160" height="26" as="geometry" />
        </mxCell>
        <mxCell id="929rITErZlj4l2X_e_oS-6" value="" style="line;strokeWidth=1;fillColor=none;align=left;verticalAlign=middle;spacingTop=-1;spacingLeft=3;spacingRight=3;rotatable=0;labelPosition=right;points=[];portConstraint=eastwest;strokeColor=inherit;" vertex="1" parent="929rITErZlj4l2X_e_oS-4">
          <mxGeometry y="52" width="160" height="8" as="geometry" />
        </mxCell>
        <mxCell id="929rITErZlj4l2X_e_oS-7" value="+Aluno(int, String, data, ..., int)" style="text;strokeColor=none;fillColor=none;align=left;verticalAlign=top;spacingLeft=4;spacingRight=4;overflow=hidden;rotatable=0;points=[[0,0.5],[1,0.5]];portConstraint=eastwest;whiteSpace=wrap;html=1;" vertex="1" parent="929rITErZlj4l2X_e_oS-4">
          <mxGeometry y="60" width="160" height="40" as="geometry" />
        </mxCell>
        <mxCell id="929rITErZlj4l2X_e_oS-8" value="Professor" style="swimlane;fontStyle=1;align=center;verticalAlign=top;childLayout=stackLayout;horizontal=1;startSize=26;horizontalStack=0;resizeParent=1;resizeParentMax=0;resizeLast=0;collapsible=1;marginBottom=0;whiteSpace=wrap;html=1;" vertex="1" parent="1">
          <mxGeometry x="1070" y="1460" width="160" height="100" as="geometry" />
        </mxCell>
        <mxCell id="929rITErZlj4l2X_e_oS-9" value="-cargo: String" style="text;strokeColor=none;fillColor=none;align=left;verticalAlign=top;spacingLeft=4;spacingRight=4;overflow=hidden;rotatable=0;points=[[0,0.5],[1,0.5]];portConstraint=eastwest;whiteSpace=wrap;html=1;" vertex="1" parent="929rITErZlj4l2X_e_oS-8">
          <mxGeometry y="26" width="160" height="26" as="geometry" />
        </mxCell>
        <mxCell id="929rITErZlj4l2X_e_oS-10" value="" style="line;strokeWidth=1;fillColor=none;align=left;verticalAlign=middle;spacingTop=-1;spacingLeft=3;spacingRight=3;rotatable=0;labelPosition=right;points=[];portConstraint=eastwest;strokeColor=inherit;" vertex="1" parent="929rITErZlj4l2X_e_oS-8">
          <mxGeometry y="52" width="160" height="8" as="geometry" />
        </mxCell>
        <mxCell id="929rITErZlj4l2X_e_oS-11" value="+Professor(int, String, data, ..., String)" style="text;strokeColor=none;fillColor=none;align=left;verticalAlign=top;spacingLeft=4;spacingRight=4;overflow=hidden;rotatable=0;points=[[0,0.5],[1,0.5]];portConstraint=eastwest;whiteSpace=wrap;html=1;" vertex="1" parent="929rITErZlj4l2X_e_oS-8">
          <mxGeometry y="60" width="160" height="40" as="geometry" />
        </mxCell>
        <mxCell id="929rITErZlj4l2X_e_oS-12" value="NotaTrabalho" style="swimlane;fontStyle=1;align=center;verticalAlign=top;childLayout=stackLayout;horizontal=1;startSize=26;horizontalStack=0;resizeParent=1;resizeParentMax=0;resizeLast=0;collapsible=1;marginBottom=0;whiteSpace=wrap;html=1;" vertex="1" parent="1">
          <mxGeometry x="800" y="2070" width="160" height="150" as="geometry" />
        </mxCell>
        <mxCell id="929rITErZlj4l2X_e_oS-13" value="-nota: double&lt;br&gt;-trabalho(Trabalho)&lt;br&gt;-aluno(Aluno)" style="text;strokeColor=none;fillColor=none;align=left;verticalAlign=top;spacingLeft=4;spacingRight=4;overflow=hidden;rotatable=0;points=[[0,0.5],[1,0.5]];portConstraint=eastwest;whiteSpace=wrap;html=1;" vertex="1" parent="929rITErZlj4l2X_e_oS-12">
          <mxGeometry y="26" width="160" height="64" as="geometry" />
        </mxCell>
        <mxCell id="929rITErZlj4l2X_e_oS-14" value="" style="line;strokeWidth=1;fillColor=none;align=left;verticalAlign=middle;spacingTop=-1;spacingLeft=3;spacingRight=3;rotatable=0;labelPosition=right;points=[];portConstraint=eastwest;strokeColor=inherit;" vertex="1" parent="929rITErZlj4l2X_e_oS-12">
          <mxGeometry y="90" width="160" height="8" as="geometry" />
        </mxCell>
        <mxCell id="929rITErZlj4l2X_e_oS-15" value="+NotaTrabalho(int, double,Trabalho, Aluno)" style="text;strokeColor=none;fillColor=none;align=left;verticalAlign=top;spacingLeft=4;spacingRight=4;overflow=hidden;rotatable=0;points=[[0,0.5],[1,0.5]];portConstraint=eastwest;whiteSpace=wrap;html=1;" vertex="1" parent="929rITErZlj4l2X_e_oS-12">
          <mxGeometry y="98" width="160" height="52" as="geometry" />
        </mxCell>
        <mxCell id="929rITErZlj4l2X_e_oS-16" value="Turma" style="swimlane;fontStyle=1;align=center;verticalAlign=top;childLayout=stackLayout;horizontal=1;startSize=26;horizontalStack=0;resizeParent=1;resizeParentMax=0;resizeLast=0;collapsible=1;marginBottom=0;whiteSpace=wrap;html=1;" vertex="1" parent="1">
          <mxGeometry x="870" y="1670" width="160" height="114" as="geometry" />
        </mxCell>
        <mxCell id="929rITErZlj4l2X_e_oS-17" value="-disciplina(Displina)&lt;br&gt;-professor(Professor)&lt;br&gt;-capacidade: int" style="text;strokeColor=none;fillColor=none;align=left;verticalAlign=top;spacingLeft=4;spacingRight=4;overflow=hidden;rotatable=0;points=[[0,0.5],[1,0.5]];portConstraint=eastwest;whiteSpace=wrap;html=1;" vertex="1" parent="929rITErZlj4l2X_e_oS-16">
          <mxGeometry y="26" width="160" height="54" as="geometry" />
        </mxCell>
        <mxCell id="929rITErZlj4l2X_e_oS-18" value="" style="line;strokeWidth=1;fillColor=none;align=left;verticalAlign=middle;spacingTop=-1;spacingLeft=3;spacingRight=3;rotatable=0;labelPosition=right;points=[];portConstraint=eastwest;strokeColor=inherit;" vertex="1" parent="929rITErZlj4l2X_e_oS-16">
          <mxGeometry y="80" width="160" height="8" as="geometry" />
        </mxCell>
        <mxCell id="929rITErZlj4l2X_e_oS-19" value="+Turma(int, )" style="text;strokeColor=none;fillColor=none;align=left;verticalAlign=top;spacingLeft=4;spacingRight=4;overflow=hidden;rotatable=0;points=[[0,0.5],[1,0.5]];portConstraint=eastwest;whiteSpace=wrap;html=1;" vertex="1" parent="929rITErZlj4l2X_e_oS-16">
          <mxGeometry y="88" width="160" height="26" as="geometry" />
        </mxCell>
        <mxCell id="929rITErZlj4l2X_e_oS-20" value="Disciplina" style="swimlane;fontStyle=1;align=center;verticalAlign=top;childLayout=stackLayout;horizontal=1;startSize=26;horizontalStack=0;resizeParent=1;resizeParentMax=0;resizeLast=0;collapsible=1;marginBottom=0;whiteSpace=wrap;html=1;" vertex="1" parent="1">
          <mxGeometry x="500" y="1610" width="160" height="110" as="geometry" />
        </mxCell>
        <mxCell id="929rITErZlj4l2X_e_oS-21" value="-ementa: String" style="text;strokeColor=none;fillColor=none;align=left;verticalAlign=top;spacingLeft=4;spacingRight=4;overflow=hidden;rotatable=0;points=[[0,0.5],[1,0.5]];portConstraint=eastwest;whiteSpace=wrap;html=1;" vertex="1" parent="929rITErZlj4l2X_e_oS-20">
          <mxGeometry y="26" width="160" height="26" as="geometry" />
        </mxCell>
        <mxCell id="929rITErZlj4l2X_e_oS-22" value="" style="line;strokeWidth=1;fillColor=none;align=left;verticalAlign=middle;spacingTop=-1;spacingLeft=3;spacingRight=3;rotatable=0;labelPosition=right;points=[];portConstraint=eastwest;strokeColor=inherit;" vertex="1" parent="929rITErZlj4l2X_e_oS-20">
          <mxGeometry y="52" width="160" height="8" as="geometry" />
        </mxCell>
        <mxCell id="929rITErZlj4l2X_e_oS-23" value="+Disciplina(int, String, String)" style="text;strokeColor=none;fillColor=none;align=left;verticalAlign=top;spacingLeft=4;spacingRight=4;overflow=hidden;rotatable=0;points=[[0,0.5],[1,0.5]];portConstraint=eastwest;whiteSpace=wrap;html=1;" vertex="1" parent="929rITErZlj4l2X_e_oS-20">
          <mxGeometry y="60" width="160" height="50" as="geometry" />
        </mxCell>
        <mxCell id="929rITErZlj4l2X_e_oS-24" value="RendimentoEscolar" style="swimlane;fontStyle=1;align=center;verticalAlign=top;childLayout=stackLayout;horizontal=1;startSize=26;horizontalStack=0;resizeParent=1;resizeParentMax=0;resizeLast=0;collapsible=1;marginBottom=0;whiteSpace=wrap;html=1;" vertex="1" parent="1">
          <mxGeometry x="1310" y="2010" width="160" height="154" as="geometry" />
        </mxCell>
        <mxCell id="929rITErZlj4l2X_e_oS-25" value="- Double nota1;&lt;br&gt;-Double nota2;&lt;br&gt;-Nota Trabalho trabalhos;&lt;br&gt;- Double mediaTrabalhos;&lt;br&gt;-Double mediaGeral;" style="text;strokeColor=none;fillColor=none;align=left;verticalAlign=top;spacingLeft=4;spacingRight=4;overflow=hidden;rotatable=0;points=[[0,0.5],[1,0.5]];portConstraint=eastwest;whiteSpace=wrap;html=1;" vertex="1" parent="929rITErZlj4l2X_e_oS-24">
          <mxGeometry y="26" width="160" height="94" as="geometry" />
        </mxCell>
        <mxCell id="929rITErZlj4l2X_e_oS-26" value="" style="line;strokeWidth=1;fillColor=none;align=left;verticalAlign=middle;spacingTop=-1;spacingLeft=3;spacingRight=3;rotatable=0;labelPosition=right;points=[];portConstraint=eastwest;strokeColor=inherit;" vertex="1" parent="929rITErZlj4l2X_e_oS-24">
          <mxGeometry y="120" width="160" height="8" as="geometry" />
        </mxCell>
        <mxCell id="929rITErZlj4l2X_e_oS-27" value="+RendimentoEscolar(int...)" style="text;strokeColor=none;fillColor=none;align=left;verticalAlign=top;spacingLeft=4;spacingRight=4;overflow=hidden;rotatable=0;points=[[0,0.5],[1,0.5]];portConstraint=eastwest;whiteSpace=wrap;html=1;" vertex="1" parent="929rITErZlj4l2X_e_oS-24">
          <mxGeometry y="128" width="160" height="26" as="geometry" />
        </mxCell>
        <mxCell id="929rITErZlj4l2X_e_oS-28" value="Trabalho" style="swimlane;fontStyle=1;align=center;verticalAlign=top;childLayout=stackLayout;horizontal=1;startSize=26;horizontalStack=0;resizeParent=1;resizeParentMax=0;resizeLast=0;collapsible=1;marginBottom=0;whiteSpace=wrap;html=1;" vertex="1" parent="1">
          <mxGeometry x="620" y="1880" width="160" height="104" as="geometry" />
        </mxCell>
        <mxCell id="929rITErZlj4l2X_e_oS-30" value="-descriÃ§Ã£o: String&lt;br&gt;-disciplina(Displina)" style="text;strokeColor=none;fillColor=none;align=left;verticalAlign=top;spacingLeft=4;spacingRight=4;overflow=hidden;rotatable=0;points=[[0,0.5],[1,0.5]];portConstraint=eastwest;whiteSpace=wrap;html=1;" vertex="1" parent="929rITErZlj4l2X_e_oS-28">
          <mxGeometry y="26" width="160" height="44" as="geometry" />
        </mxCell>
        <mxCell id="929rITErZlj4l2X_e_oS-31" value="" style="line;strokeWidth=1;fillColor=none;align=left;verticalAlign=middle;spacingTop=-1;spacingLeft=3;spacingRight=3;rotatable=0;labelPosition=right;points=[];portConstraint=eastwest;strokeColor=inherit;" vertex="1" parent="929rITErZlj4l2X_e_oS-28">
          <mxGeometry y="70" width="160" height="8" as="geometry" />
        </mxCell>
        <mxCell id="929rITErZlj4l2X_e_oS-32" value="+Trabalho(int,)" style="text;strokeColor=none;fillColor=none;align=left;verticalAlign=top;spacingLeft=4;spacingRight=4;overflow=hidden;rotatable=0;points=[[0,0.5],[1,0.5]];portConstraint=eastwest;whiteSpace=wrap;html=1;" vertex="1" parent="929rITErZlj4l2X_e_oS-28">
          <mxGeometry y="78" width="160" height="26" as="geometry" />
        </mxCell>
        <mxCell id="929rITErZlj4l2X_e_oS-33" value="" style="endArrow=none;html=1;rounded=0;entryX=0.165;entryY=1.05;entryDx=0;entryDy=0;entryPerimeter=0;" edge="1" parent="1" target="929rITErZlj4l2X_e_oS-11">
          <mxGeometry width="50" height="50" relative="1" as="geometry">
            <mxPoint x="1030" y="1690" as="sourcePoint" />
            <mxPoint x="1080" y="1640" as="targetPoint" />
          </mxGeometry>
        </mxCell>
        <mxCell id="929rITErZlj4l2X_e_oS-34" value="" style="endArrow=none;html=1;rounded=0;" edge="1" parent="1" target="929rITErZlj4l2X_e_oS-16">
          <mxGeometry width="50" height="50" relative="1" as="geometry">
            <mxPoint x="660" y="1630" as="sourcePoint" />
            <mxPoint x="710" y="1580" as="targetPoint" />
          </mxGeometry>
        </mxCell>
        <mxCell id="929rITErZlj4l2X_e_oS-35" value="" style="endArrow=none;html=1;rounded=0;entryX=0.313;entryY=1;entryDx=0;entryDy=0;entryPerimeter=0;" edge="1" parent="1" target="929rITErZlj4l2X_e_oS-23">
          <mxGeometry width="50" height="50" relative="1" as="geometry">
            <mxPoint x="640" y="1880" as="sourcePoint" />
            <mxPoint x="690" y="1830" as="targetPoint" />
          </mxGeometry>
        </mxCell>
        <mxCell id="929rITErZlj4l2X_e_oS-36" value="" style="endArrow=none;html=1;rounded=0;entryX=0.517;entryY=1.07;entryDx=0;entryDy=0;entryPerimeter=0;" edge="1" parent="1" target="929rITErZlj4l2X_e_oS-7">
          <mxGeometry width="50" height="50" relative="1" as="geometry">
            <mxPoint x="933" y="2070" as="sourcePoint" />
            <mxPoint x="983" y="2020" as="targetPoint" />
          </mxGeometry>
        </mxCell>
        <mxCell id="929rITErZlj4l2X_e_oS-37" value="" style="endArrow=none;html=1;rounded=0;entryX=0.602;entryY=1.231;entryDx=0;entryDy=0;entryPerimeter=0;" edge="1" parent="1" target="929rITErZlj4l2X_e_oS-32">
          <mxGeometry width="50" height="50" relative="1" as="geometry">
            <mxPoint x="820" y="2070" as="sourcePoint" />
            <mxPoint x="870" y="2020" as="targetPoint" />
          </mxGeometry>
        </mxCell>
        <mxCell id="929rITErZlj4l2X_e_oS-38" value="" style="endArrow=none;html=1;rounded=0;entryX=0.4;entryY=0.01;entryDx=0;entryDy=0;entryPerimeter=0;" edge="1" parent="1" target="929rITErZlj4l2X_e_oS-24">
          <mxGeometry width="50" height="50" relative="1" as="geometry">
            <mxPoint x="1030" y="1784" as="sourcePoint" />
            <mxPoint x="1080" y="1734" as="targetPoint" />
          </mxGeometry>
        </mxCell>
        <mxCell id="929rITErZlj4l2X_e_oS-39" value="" style="endArrow=none;html=1;rounded=0;exitX=0;exitY=0.083;exitDx=0;exitDy=0;exitPerimeter=0;" edge="1" parent="1" source="929rITErZlj4l2X_e_oS-24">
          <mxGeometry width="50" height="50" relative="1" as="geometry">
            <mxPoint x="988" y="2030" as="sourcePoint" />
            <mxPoint x="1038" y="1980" as="targetPoint" />
          </mxGeometry>
        </mxCell>
        <mxCell id="929rITErZlj4l2X_e_oS-40" value="" style="endArrow=none;html=1;rounded=0;entryX=0;entryY=0.13;entryDx=0;entryDy=0;entryPerimeter=0;" edge="1" parent="1" target="929rITErZlj4l2X_e_oS-24">
          <mxGeometry width="50" height="50" relative="1" as="geometry">
            <mxPoint x="960" y="2080" as="sourcePoint" />
            <mxPoint x="1010" y="2030" as="targetPoint" />
          </mxGeometry>
        </mxCell>
        <mxCell id="929rITErZlj4l2X_e_oS-41" value="1..*" style="text;html=1;strokeColor=none;fillColor=none;align=center;verticalAlign=middle;whiteSpace=wrap;rounded=0;" vertex="1" parent="1">
          <mxGeometry x="1080" y="1560" width="60" height="30" as="geometry" />
        </mxCell>
        <mxCell id="929rITErZlj4l2X_e_oS-42" value="1..*" style="text;html=1;strokeColor=none;fillColor=none;align=center;verticalAlign=middle;whiteSpace=wrap;rounded=0;" vertex="1" parent="1">
          <mxGeometry x="1020" y="1680" width="60" height="30" as="geometry" />
        </mxCell>
        <mxCell id="929rITErZlj4l2X_e_oS-43" value="1..*" style="text;html=1;strokeColor=none;fillColor=none;align=center;verticalAlign=middle;whiteSpace=wrap;rounded=0;" vertex="1" parent="1">
          <mxGeometry x="810" y="1710" width="60" height="30" as="geometry" />
        </mxCell>
        <mxCell id="929rITErZlj4l2X_e_oS-44" value="1" style="text;html=1;strokeColor=none;fillColor=none;align=center;verticalAlign=middle;whiteSpace=wrap;rounded=0;" vertex="1" parent="1">
          <mxGeometry x="650" y="1600" width="60" height="30" as="geometry" />
        </mxCell>
        <mxCell id="929rITErZlj4l2X_e_oS-45" value="1" style="text;html=1;strokeColor=none;fillColor=none;align=center;verticalAlign=middle;whiteSpace=wrap;rounded=0;" vertex="1" parent="1">
          <mxGeometry x="660" y="1990" width="60" height="30" as="geometry" />
        </mxCell>
        <mxCell id="929rITErZlj4l2X_e_oS-49" value="1" style="text;html=1;strokeColor=none;fillColor=none;align=center;verticalAlign=middle;whiteSpace=wrap;rounded=0;" vertex="1" parent="1">
          <mxGeometry x="928" y="1984" width="60" height="30" as="geometry" />
        </mxCell>
        <mxCell id="929rITErZlj4l2X_e_oS-50" value="1..*" style="text;html=1;strokeColor=none;fillColor=none;align=center;verticalAlign=middle;whiteSpace=wrap;rounded=0;" vertex="1" parent="1">
          <mxGeometry x="878" y="2040" width="60" height="30" as="geometry" />
        </mxCell>
        <mxCell id="929rITErZlj4l2X_e_oS-51" value="1" style="text;html=1;strokeColor=none;fillColor=none;align=center;verticalAlign=middle;whiteSpace=wrap;rounded=0;" vertex="1" parent="1">
          <mxGeometry x="1080" y="1950" width="60" height="30" as="geometry" />
        </mxCell>
        <mxCell id="929rITErZlj4l2X_e_oS-52" value="1..*" style="text;html=1;strokeColor=none;fillColor=none;align=center;verticalAlign=middle;whiteSpace=wrap;rounded=0;" vertex="1" parent="1">
          <mxGeometry x="1260" y="1990" width="60" height="30" as="geometry" />
        </mxCell>
        <mxCell id="929rITErZlj4l2X_e_oS-53" value="1..*" style="text;html=1;strokeColor=none;fillColor=none;align=center;verticalAlign=middle;whiteSpace=wrap;rounded=0;" vertex="1" parent="1">
          <mxGeometry x="740" y="2060" width="60" height="30" as="geometry" />
        </mxCell>
        <mxCell id="929rITErZlj4l2X_e_oS-54" value="1" style="text;html=1;strokeColor=none;fillColor=none;align=center;verticalAlign=middle;whiteSpace=wrap;rounded=0;" vertex="1" parent="1">
          <mxGeometry x="550" y="1720" width="60" height="30" as="geometry" />
        </mxCell>
        <mxCell id="929rITErZlj4l2X_e_oS-55" value="&lt;span style=&quot;color: rgb(0, 0, 0); font-family: Helvetica; font-size: 12px; font-style: normal; font-variant-ligatures: normal; font-variant-caps: normal; font-weight: 400; letter-spacing: normal; orphans: 2; text-align: center; text-indent: 0px; text-transform: none; widows: 2; word-spacing: 0px; -webkit-text-stroke-width: 0px; background-color: rgb(251, 251, 251); text-decoration-thickness: initial; text-decoration-style: initial; text-decoration-color: initial; float: none; display: inline !important;&quot;&gt;1&lt;/span&gt;" style="text;whiteSpace=wrap;html=1;" vertex="1" parent="1">
          <mxGeometry x="640" y="1850" width="40" height="30" as="geometry" />
        </mxCell>
      </root>
    </mxGraphModel>
  </diagram>
</mxfile>
